<?xml version="1.0" encoding="utf-8"?>
<!-- Generator: Adobe Illustrator 21.0.2, SVG Export Plug-In . SVG Version: 6.00 Build 0)  -->
<svg version="1.1" id="Layer_1" xmlns="http://www.w3.org/2000/svg" xmlns:xlink="http://www.w3.org/1999/xlink" x="0px" y="0px"
	 viewBox="0 0 180.4 145.8" style="enable-background:new 0 0 180.4 145.8;" xml:space="preserve">
<style type="text/css">
	.st0{fill:#0BACFF;}
	.st1{fill:#FFFFFF;}
</style>
<polygon class="st0" points="120.3,145.8 0,145.8 64,0 180.4,0 "/>
<path class="st1" d="M129.4,55.1h-3.2c0.6-3.8,0.8-7,0.8-9.9c0-4.5-0.8-8.3-2.3-11.5c-1.8-3.6-4.4-6.3-7.8-8.3c-3.4-2-7.1-3-11.2-3
	c-8,0-15.7,3.8-23.1,11.3c-7.4,7.5-13.5,17-18.1,28.4c-4.6,11.4-6.9,22.4-6.9,33.1c0,9.3,1.8,16.3,5.5,21.1
	c3.6,4.8,8.7,7.2,15.2,7.2c4.2,0,8.7-1,13.4-3s8.8-4.7,12.3-8.3c2.4-2.5,4.6-5.4,6.4-8.7c1.9-3.3,4-8,6.5-14.1h3.2
	c-4.4,16-7.2,27.5-8.5,34.7h-3.2c0.3-2.1,0.4-3.7,0.4-4.9c0-2.4-0.6-3.7-1.7-3.7c-0.8,0-1.8,0.4-3,1.3c-3.4,2.2-6.3,3.9-8.6,5.1
	c-2.3,1.2-5,2.2-8.1,3c-3.1,0.8-6.6,1.2-10.6,1.2c-10.7,0-19-2.9-24.9-8.7s-8.8-14.2-8.8-25.3s2.8-22.3,8.3-33.5
	s13.1-20.5,22.8-27.8s20.3-11,31.8-11c3.9,0,7.2,0.4,9.8,1.3c2.6,0.8,4.8,1.9,6.4,3.1s3.4,2.9,5.4,5c0.8,0.8,1.6,1.3,2.2,1.3
	c1.7,0,3.6-2.9,5.7-8.6h3C135.4,30.3,132.4,41.3,129.4,55.1z"/>
</svg>
