<?xml version="1.0" encoding="utf-8"?>
<!-- Generator: Adobe Illustrator 21.0.2, SVG Export Plug-In . SVG Version: 6.00 Build 0)  -->
<svg version="1.1" id="Layer_1" xmlns="http://www.w3.org/2000/svg" xmlns:xlink="http://www.w3.org/1999/xlink" x="0px" y="0px"
	 viewBox="0 0 211.2 27.3" style="enable-background:new 0 0 211.2 27.3;" xml:space="preserve">
<style type="text/css">
	.st0{fill:#0BACFF;}
	.st1{fill:#FFFFFF;}
</style>
<polygon class="st0" points="198.8,27.3 0,27.3 13.2,0 211.2,0 "/>
<g>
	<path class="st1" d="M33.4,9.3h-0.5C33,8.6,33,8.1,33,7.6c0-0.8-0.1-1.4-0.4-1.9c-0.3-0.6-0.7-1.1-1.3-1.4
		c-0.6-0.3-1.2-0.5-1.9-0.5c-1.3,0-2.7,0.6-3.9,1.9c-1.3,1.3-2.3,2.9-3.1,4.8s-1.2,3.8-1.2,5.6c0,1.6,0.3,2.8,0.9,3.6
		c0.6,0.8,1.5,1.2,2.6,1.2c0.7,0,1.5-0.2,2.3-0.5s1.5-0.8,2.1-1.4c0.4-0.4,0.8-0.9,1.1-1.5c0.3-0.6,0.7-1.4,1.1-2.4h0.5
		c-0.7,2.7-1.2,4.6-1.4,5.9h-0.5c0-0.3,0.1-0.6,0.1-0.8c0-0.4-0.1-0.6-0.3-0.6c-0.1,0-0.3,0.1-0.5,0.2c-0.6,0.4-1.1,0.7-1.5,0.9
		c-0.4,0.2-0.8,0.4-1.4,0.5c-0.5,0.1-1.1,0.2-1.8,0.2c-1.8,0-3.2-0.5-4.2-1.5c-1-1-1.5-2.4-1.5-4.3s0.5-3.8,1.4-5.7s2.2-3.5,3.8-4.7
		c1.6-1.2,3.4-1.9,5.4-1.9c0.7,0,1.2,0.1,1.7,0.2s0.8,0.3,1.1,0.5c0.3,0.2,0.6,0.5,0.9,0.8c0.1,0.1,0.3,0.2,0.4,0.2
		c0.3,0,0.6-0.5,1-1.5H35C34.4,5.1,33.9,6.9,33.4,9.3z"/>
	<path class="st1" d="M35.3,13.3c0.6-1.5,1.4-2.7,2.5-3.7S40.1,8,41.5,8c1,0,1.9,0.3,2.4,1c0.6,0.6,0.9,1.6,0.9,2.9
		c0,1.3-0.3,2.7-0.9,4.1s-1.4,2.7-2.5,3.7c-1.1,1-2.3,1.5-3.7,1.5c-1,0-1.9-0.3-2.5-1c-0.6-0.6-0.9-1.6-0.9-2.9
		C34.5,16.1,34.8,14.8,35.3,13.3z M39,10.1c-0.7,1.1-1.3,2.4-1.8,4c-0.4,1.6-0.7,3.1-0.7,4.6c0,1.4,0.5,2.1,1.4,2.1
		c0.8,0,1.6-0.5,2.4-1.6s1.3-2.4,1.8-4c0.4-1.6,0.7-3.1,0.7-4.6c0-0.7-0.1-1.3-0.3-1.6c-0.2-0.3-0.6-0.5-1-0.5
		C40.5,8.5,39.8,9.1,39,10.1z"/>
	<path class="st1" d="M58.2,18.7c-0.6,1.7-1.6,2.5-3,2.5c-0.7,0-1.2-0.2-1.5-0.7c-0.1-0.2-0.2-0.5-0.2-0.8c0-0.5,0.1-1.1,0.4-1.9
		l2.3-7c0.2-0.5,0.2-0.9,0.2-1.2c0-0.6-0.3-0.8-0.8-0.8c-0.6,0-1.3,0.5-2.1,1.4s-1.6,2.2-2.3,3.7c-0.8,1.6-1.4,3.3-2,5.3l-0.4,1.7
		h-2.1l2.9-10.5c0.1-0.4,0.2-0.7,0.2-0.9c0-0.4-0.2-0.6-0.5-0.6c-0.2,0-0.5,0.1-0.7,0.2c-0.2,0.2-0.4,0.4-0.6,0.8
		c-0.2,0.4-0.4,0.9-0.6,1.5l-0.3,0.9h-0.5l0.6-1.8C47.8,8.9,48.8,8,50.1,8c1,0,1.4,0.5,1.4,1.4c0,0.4-0.1,1.1-0.3,2l-0.8,3.3
		c0.7-1.7,1.4-3,2-4s1.3-1.7,2-2.1C55,8.3,55.7,8,56.5,8c1.3,0,2,0.6,2,1.8c0,0.5-0.1,1.1-0.4,1.8l-2.4,7.1
		c-0.1,0.4-0.2,0.7-0.2,0.9c0,0.4,0.2,0.6,0.6,0.6c0.3,0,0.7-0.2,1-0.6s0.6-1,0.9-1.9l0.3-0.9h0.5L58.2,18.7z"/>
	<path class="st1" d="M72.3,18.7c-0.6,1.7-1.6,2.5-3,2.5c-0.7,0-1.2-0.2-1.5-0.7c-0.1-0.2-0.2-0.5-0.2-0.8c0-0.5,0.1-1.1,0.4-1.9
		l2.3-7c0.2-0.5,0.2-0.9,0.2-1.2c0-0.6-0.3-0.8-0.8-0.8c-0.6,0-1.3,0.5-2.1,1.4c-0.8,0.9-1.6,2.2-2.3,3.7c-0.8,1.6-1.4,3.3-2,5.3
		L63,20.9h-2.1l2.9-10.5c0.1-0.4,0.2-0.7,0.2-0.9c0-0.4-0.2-0.6-0.5-0.6c-0.2,0-0.5,0.1-0.7,0.2s-0.4,0.4-0.6,0.8
		c-0.2,0.4-0.4,0.9-0.6,1.5l-0.3,0.9h-0.5l0.6-1.8C61.9,8.9,62.9,8,64.2,8c1,0,1.4,0.5,1.4,1.4c0,0.4-0.1,1.1-0.3,2l-0.8,3.3
		c0.7-1.7,1.4-3,2-4c0.6-1,1.3-1.7,2-2.1C69.1,8.3,69.8,8,70.6,8c1.3,0,2,0.6,2,1.8c0,0.5-0.1,1.1-0.4,1.8l-2.4,7.1
		c-0.1,0.4-0.2,0.7-0.2,0.9c0,0.4,0.2,0.6,0.6,0.6c0.3,0,0.7-0.2,1-0.6s0.6-1,0.9-1.9l0.3-0.9h0.5L72.3,18.7z"/>
	<path class="st1" d="M75.5,13.3c0.6-1.5,1.4-2.7,2.5-3.7C79,8.6,80.3,8,81.7,8c1,0,1.9,0.3,2.4,1c0.6,0.6,0.9,1.6,0.9,2.9
		c0,1.3-0.3,2.7-0.9,4.1c-0.6,1.5-1.4,2.7-2.5,3.7c-1.1,1-2.3,1.5-3.7,1.5c-1,0-1.9-0.3-2.5-1s-0.9-1.6-0.9-2.9
		C74.6,16.1,74.9,14.8,75.5,13.3z M79.2,10.1c-0.7,1.1-1.3,2.4-1.8,4c-0.4,1.6-0.7,3.1-0.7,4.6c0,1.4,0.5,2.1,1.4,2.1
		c0.8,0,1.6-0.5,2.4-1.6s1.3-2.4,1.8-4s0.7-3.1,0.7-4.6c0-0.7-0.1-1.3-0.3-1.6c-0.2-0.3-0.6-0.5-1-0.5C80.7,8.5,79.9,9.1,79.2,10.1z
		"/>
	<path class="st1" d="M92.2,10.7c0.5-0.9,1.1-1.6,1.6-2.1C94.4,8.3,95,8,95.6,8c0.4,0,0.8,0.1,1.1,0.4c0.3,0.3,0.4,0.6,0.4,1
		c0,0.3-0.1,0.6-0.2,0.9c-0.2,0.3-0.4,0.5-0.6,0.6c-0.3,0.2-0.5,0.2-0.8,0.2c-0.3,0-0.5-0.1-0.7-0.2c-0.2-0.2-0.3-0.4-0.3-0.6
		c0-0.7,0.4-1.2,1.1-1.6c-0.1-0.1-0.2-0.1-0.3-0.1c-0.6,0-1.2,0.4-1.9,1.3c-0.7,0.9-1.3,2.1-2,3.6c-0.7,1.5-1.3,3.3-1.9,5.3l-0.5,2
		h-2.1l2.9-10.5c0.1-0.4,0.2-0.7,0.2-1c0-0.4-0.2-0.6-0.5-0.6c-0.4,0-0.7,0.2-1,0.6c-0.3,0.4-0.6,1-0.9,1.9l-0.3,0.9h-0.5l0.6-1.8
		C87.9,8.9,88.9,8,90.3,8c0.9,0,1.4,0.5,1.4,1.4c0,0.3,0,0.5-0.1,0.8s-0.1,0.7-0.3,1.2l-0.8,3.1C91.2,13,91.7,11.7,92.2,10.7z"/>
	<path class="st1" d="M113.3,3.7c2.3,0,3.9,0,4.9-0.1c-0.4,1.2-0.8,2.2-1,3.1c-0.2,0.6-0.3,1.3-0.5,2h-0.6c0.2-1.1,0.3-1.9,0.3-2.4
		c0-0.5-0.1-0.9-0.3-1.3c-0.2-0.3-0.5-0.5-0.9-0.7c-0.4-0.1-1-0.2-1.7-0.2h-1.3c-0.6,0-1,0-1.3,0.1c-0.3,0.1-0.5,0.3-0.7,0.6
		s-0.3,0.7-0.5,1.3l-1.6,6h1.8c0.8,0,1.4-0.2,1.8-0.7c0.4-0.5,0.7-1,0.9-1.5c0.2-0.5,0.3-0.8,0.4-1h0.6c-0.3,1-0.6,1.8-0.7,2.3
		c-0.2,0.6-0.2,0.9-0.3,1.1c-0.3,1.4-0.6,2.6-0.8,3.5h-0.6c0-0.1,0.1-0.4,0.1-0.8s0.1-0.7,0.1-0.9c0-0.5-0.1-0.9-0.4-1.1
		c-0.2-0.3-0.7-0.4-1.3-0.4h-1.8l-1.5,5.6c-0.1,0.5-0.2,0.8-0.2,1.1c0,0.3,0.1,0.5,0.2,0.6s0.3,0.2,0.6,0.3c0.3,0.1,0.7,0.1,1.2,0.1
		l-0.1,0.5c-0.8,0-2-0.1-3.6-0.1c-1.4,0-2.4,0-3.1,0.1l0.1-0.5c0.6,0,1-0.1,1.3-0.2c0.3-0.1,0.5-0.3,0.7-0.6
		c0.2-0.3,0.3-0.7,0.5-1.3l3.2-12.1c0.1-0.5,0.2-0.9,0.2-1.2c0-0.2-0.1-0.4-0.2-0.5c-0.1-0.1-0.3-0.2-0.5-0.3
		c-0.2-0.1-0.5-0.1-1-0.1l0.1-0.5C107.9,3.7,110.2,3.7,113.3,3.7z"/>
	<path class="st1" d="M120.4,9.6c0-0.4-0.2-0.6-0.5-0.6c-0.4,0-0.7,0.2-1,0.6c-0.3,0.4-0.6,1-0.9,1.9l-0.3,0.9h-0.5l0.6-1.8
		c0.3-0.9,0.8-1.6,1.3-2c0.5-0.4,1.1-0.6,1.7-0.6c1.1,0,1.6,0.5,1.6,1.5c0,0.5-0.1,1.1-0.4,1.9l-2.6,7.4c-0.1,0.3-0.2,0.6-0.2,0.9
		c0,0.4,0.2,0.6,0.6,0.6c0.3,0,0.6-0.2,0.9-0.6c0.3-0.4,0.6-1,1-1.9L122,17h0.5l-0.6,1.8c-0.3,0.9-0.7,1.5-1.3,1.9
		c-0.5,0.4-1.1,0.6-1.7,0.6c-1.1,0-1.7-0.5-1.7-1.5c0-0.5,0.1-1.1,0.4-1.9l2.6-7.4C120.3,10.1,120.4,9.8,120.4,9.6z M121.2,3.4
		c0.2-0.3,0.4-0.5,0.7-0.7c0.3-0.2,0.6-0.3,0.9-0.3c0.4,0,0.7,0.1,0.9,0.4c0.2,0.2,0.3,0.5,0.3,0.9c0,0.3-0.1,0.6-0.3,0.9
		c-0.2,0.3-0.4,0.5-0.7,0.7c-0.3,0.2-0.6,0.3-0.9,0.3c-0.4,0-0.7-0.1-0.9-0.4c-0.2-0.2-0.3-0.5-0.3-0.9C120.9,3.9,121,3.6,121.2,3.4
		z"/>
	<path class="st1" d="M136,18.7c-0.6,1.7-1.6,2.5-3,2.5c-0.7,0-1.2-0.2-1.5-0.7c-0.1-0.2-0.2-0.5-0.2-0.8c0-0.5,0.1-1.1,0.4-1.9
		l2.3-7c0.2-0.5,0.2-0.9,0.2-1.2c0-0.6-0.3-0.8-0.8-0.8c-0.6,0-1.3,0.5-2.1,1.4s-1.6,2.2-2.3,3.7c-0.8,1.6-1.4,3.3-2,5.3l-0.4,1.7
		h-2.1l2.9-10.5c0.1-0.4,0.2-0.7,0.2-0.9c0-0.4-0.2-0.6-0.5-0.6c-0.2,0-0.5,0.1-0.7,0.2s-0.4,0.4-0.6,0.8c-0.2,0.4-0.4,0.9-0.6,1.5
		l-0.3,0.9h-0.5l0.6-1.8c0.6-1.7,1.5-2.5,2.9-2.5c1,0,1.4,0.5,1.4,1.4c0,0.4-0.1,1.1-0.3,2l-0.8,3.3c0.7-1.7,1.4-3,2-4
		s1.3-1.7,2-2.1c0.7-0.4,1.4-0.7,2.1-0.7c1.3,0,2,0.6,2,1.8c0,0.5-0.1,1.1-0.4,1.8l-2.4,7.1c-0.1,0.4-0.2,0.7-0.2,0.9
		c0,0.4,0.2,0.6,0.6,0.6c0.3,0,0.7-0.2,1-0.6s0.6-1,0.9-1.9l0.3-0.9h0.5L136,18.7z"/>
	<path class="st1" d="M150.1,18.7c-0.6,1.7-1.6,2.5-3,2.5c-0.7,0-1.2-0.2-1.5-0.7c-0.1-0.2-0.2-0.5-0.2-0.8c0-0.5,0.1-1.1,0.4-1.9
		l2.3-7c0.2-0.5,0.2-0.9,0.2-1.2c0-0.6-0.3-0.8-0.8-0.8c-0.6,0-1.3,0.5-2.1,1.4s-1.6,2.2-2.3,3.7c-0.8,1.6-1.4,3.3-2,5.3l-0.4,1.7
		h-2.1l2.9-10.5c0.1-0.4,0.2-0.7,0.2-0.9c0-0.4-0.2-0.6-0.5-0.6c-0.2,0-0.5,0.1-0.7,0.2s-0.4,0.4-0.6,0.8c-0.2,0.4-0.4,0.9-0.6,1.5
		l-0.3,0.9h-0.5l0.6-1.8c0.6-1.7,1.5-2.5,2.9-2.5c1,0,1.4,0.5,1.4,1.4c0,0.4-0.1,1.1-0.3,2l-0.8,3.3c0.7-1.7,1.4-3,2-4
		s1.3-1.7,2-2.1c0.7-0.4,1.4-0.7,2.1-0.7c1.3,0,2,0.6,2,1.8c0,0.5-0.1,1.1-0.4,1.8l-2.4,7.1c-0.1,0.4-0.2,0.7-0.2,0.9
		c0,0.4,0.2,0.6,0.6,0.6c0.3,0,0.7-0.2,1-0.6c0.3-0.4,0.6-1,0.9-1.9l0.3-0.9h0.5L150.1,18.7z"/>
	<path class="st1" d="M159.1,19.6c-0.5,0.5-1.1,0.9-1.7,1.2c-0.6,0.3-1.3,0.5-1.9,0.5c-1,0-1.8-0.3-2.4-0.9
		c-0.6-0.6-0.9-1.4-0.9-2.6c0-1.2,0.4-2.6,1.1-4.2s1.7-2.9,2.9-4c1.2-1.1,2.6-1.6,4-1.6c0.5,0,1,0.1,1.3,0.4
		c0.3,0.3,0.5,0.7,0.5,1.2c0,1.3-0.7,2.5-2.2,3.4c-1.5,1-3.2,1.8-5.1,2.4c-0.2,0.8-0.3,1.6-0.3,2.4c0,1.6,0.6,2.3,1.7,2.3
		c1.4,0,2.6-0.8,3.8-2.4l0.4,0.2C160,18.6,159.6,19.1,159.1,19.6z M158,9.4c-0.6,0.6-1.2,1.4-1.8,2.4c-0.6,1-1,2.1-1.3,3.2
		c1.6-0.6,2.7-1.1,3.3-1.6c0.6-0.5,1.1-1,1.4-1.7c0.3-0.7,0.5-1.4,0.5-2.2c0-0.4,0-0.7-0.1-0.9c-0.1-0.1-0.2-0.2-0.3-0.2
		C159.2,8.5,158.6,8.8,158,9.4z"/>
	<path class="st1" d="M168.6,10.7c0.5-0.9,1.1-1.6,1.6-2.1c0.5-0.4,1.1-0.6,1.8-0.6c0.4,0,0.8,0.1,1.1,0.4c0.3,0.3,0.4,0.6,0.4,1
		c0,0.3-0.1,0.6-0.2,0.9c-0.2,0.3-0.4,0.5-0.6,0.6c-0.3,0.2-0.5,0.2-0.8,0.2c-0.3,0-0.5-0.1-0.7-0.2c-0.2-0.2-0.3-0.4-0.3-0.6
		c0-0.7,0.4-1.2,1.1-1.6c-0.1-0.1-0.2-0.1-0.3-0.1c-0.6,0-1.2,0.4-1.9,1.3c-0.7,0.9-1.3,2.1-2,3.6c-0.7,1.5-1.3,3.3-1.9,5.3l-0.5,2
		h-2.1l2.9-10.5c0.1-0.4,0.2-0.7,0.2-1c0-0.4-0.2-0.6-0.5-0.6c-0.4,0-0.7,0.2-1,0.6c-0.3,0.4-0.6,1-0.9,1.9l-0.3,0.9h-0.5l0.6-1.8
		c0.6-1.7,1.6-2.5,2.9-2.5c0.9,0,1.4,0.5,1.4,1.4c0,0.3,0,0.5-0.1,0.8c-0.1,0.3-0.1,0.7-0.3,1.2l-0.8,3.1
		C167.6,13,168.1,11.7,168.6,10.7z"/>
	<path class="st1" d="M175.7,19.4c0,0.3,0.1,0.6,0.3,0.7c0.2,0.2,0.5,0.2,0.8,0.2c0.4,0,0.8-0.2,1.1-0.5c0.4-0.3,0.7-1,1-1.9l0.3-1
		h0.5l-0.5,1.5c-0.3,1-0.8,1.7-1.3,2.1s-1.2,0.6-2,0.6c-0.7,0-1.3-0.2-1.6-0.5c-0.4-0.4-0.5-0.9-0.5-1.5c0-0.4,0.1-0.9,0.2-1.4
		l2.6-9h-2.2l0.1-0.5h2.2l1.1-3.7c0.9,0,1.6-0.1,2.2-0.3l-1.2,4h3.2l-0.1,0.5h-3.3l-2.8,10C175.7,19,175.7,19.2,175.7,19.4z"/>
	<path class="st1" d="M190.1,15.6c0.7-1.4,1.1-2.7,1.4-4c-0.5-0.3-0.9-0.6-1.3-1c-0.4-0.4-0.6-0.8-0.6-1.3c0-0.4,0.1-0.7,0.3-0.9
		c0.2-0.2,0.5-0.3,0.9-0.3c0.8,0,1.3,0.7,1.3,2c0,1-0.2,2.2-0.7,3.5c-0.5,1.3-1.1,2.6-1.8,3.9c-0.7,1.3-1.5,2.4-2.3,3.4
		c-1.5,1.9-3.1,3.2-4.8,4c-0.8,0.4-1.6,0.6-2.1,0.6c-0.3,0-0.6-0.1-0.9-0.3c-0.2-0.2-0.4-0.4-0.4-0.7c0-0.3,0.1-0.6,0.4-0.8
		c0.3-0.2,0.6-0.3,0.9-0.3c0.3,0,0.7,0.1,1,0.2c0.3,0.2,0.7,0.4,1,0.7c1.3-0.7,2.5-1.6,3.7-2.9l-1.8-10.9c-0.1-0.5-0.2-0.8-0.3-1
		c-0.1-0.2-0.3-0.3-0.5-0.3s-0.4,0.2-0.6,0.5c-0.2,0.3-0.5,0.9-0.8,1.8l-0.3,0.9h-0.5l0.6-1.8c0.6-1.7,1.5-2.5,2.8-2.5
		c0.3,0,0.6,0.1,0.9,0.2c0.2,0.1,0.4,0.4,0.6,0.7c0.1,0.3,0.3,0.8,0.3,1.3l1.2,9.2C188.7,18.2,189.5,16.9,190.1,15.6z"/>
</g>
</svg>
